<?xml version="1.0" encoding="utf-8"?>
<!-- Generator: Adobe Illustrator 19.2.1, SVG Export Plug-In . SVG Version: 6.00 Build 0)  -->
<svg version="1.1" id="Layer_1" xmlns:sketch="http://www.bohemiancoding.com/sketch/ns"
	 xmlns="http://www.w3.org/2000/svg" xmlns:xlink="http://www.w3.org/1999/xlink" x="0px" y="0px" viewBox="0 0 46 46"
	 style="enable-background:new 0 0 46 46;" xml:space="preserve">
<style type="text/css">
	.st0{fill:none;stroke:#979797;}
</style>
<title>Artboard 13 Copy 2</title>
<desc>Created with Sketch Beta.</desc>
<g id="icons" sketch:type="MSPage">
	<g id="grids" transform="translate(-41.000000, -1.000000)" sketch:type="MSLayerGroup">
	</g>
	<g id="Artboard-13-Copy-2" sketch:type="MSArtboardGroup">
		<g id="iscs-icon" transform="translate(9.000000, 5.000000)" sketch:type="MSLayerGroup">
			<path id="Rectangle-808" sketch:type="MSShapeGroup" class="st0" d="M2,0h24c1.1,0,2,0.9,2,2v31c0,1.1-0.9,2-2,2H2
				c-1.1,0-2-0.9-2-2V2C0,0.9,0.9,0,2,0z"/>
			<g id="Page-1" transform="translate(6.000000, 8.000000)" sketch:type="MSShapeGroup">
				<path id="Stroke-1" class="st0" d="M4.9,16.7c0,1.3-1.2,2.3-2.6,2.3C0.9,19,0,17.9,0,16.5C0,15.1,0.9,14,2.3,14h2.6V16.7
					L4.9,16.7z"/>
				<path id="Stroke-3" class="st0" d="M14,13.3c0,1.3-0.9,2.3-2.3,2.3c-1.4,0-2.6-1.1-2.6-2.5c0-1.4,1.2-2.5,2.6-2.5H14V13.3
					L14,13.3z"/>
				<path id="Stroke-5" class="st0" d="M4.9,14.8V3.7L14,0v12.3"/>
				<path id="Stroke-7" class="st0" d="M4.9,7L14,3.3"/>
			</g>
		</g>
	</g>
</g>
</svg>
