<svg id="Layer_1" data-name="Layer 1" xmlns="http://www.w3.org/2000/svg" viewBox="0 0 16 16"><defs><style>.cls-1{fill:#666;}</style></defs><title>Apple_iLog_Batch2a</title><path class="cls-1" d="M10.88,6.35a0.36,0.36,0,0,0-.68,0L5.42,14.62a0.36,0.36,0,0,0,.34.59h9.55a0.36,0.36,0,0,0,.34-0.59Zm-0.34,8.18a0.68,0.68,0,1,1,.68-0.68A0.68,0.68,0,0,1,10.54,14.53Zm0.34-2H10.2s-0.34-2.35-.34-2.73a0.68,0.68,0,0,1,.68-0.68,0.66,0.66,0,0,1,.68.68C11.22,10.17,10.88,12.48,10.88,12.48Z"/><path class="cls-1" d="M15,3.23H14v-1a1,1,0,0,0-1-1H1a1,1,0,0,0-1,1v8a1,1,0,0,0,1,1H2v1a1,1,0,0,0,1,1H5l0.58-1H3v-8H15v7.05l0.84,1.46A1,1,0,0,0,16,12.23v-8A1,1,0,0,0,15,3.23Zm-2,0H3a1,1,0,0,0-1,1v6H1v-8H13v1Z"/></svg>