<?xml version="1.0" encoding="utf-8"?>
<!-- Generator: Adobe Illustrator 19.2.1, SVG Export Plug-In . SVG Version: 6.00 Build 0)  -->
<svg version="1.1" id="Layer_1" xmlns="http://www.w3.org/2000/svg" xmlns:xlink="http://www.w3.org/1999/xlink" x="0px" y="0px"
	 viewBox="0 0 16 16" style="enable-background:new 0 0 16 16;" xml:space="preserve">
<style type="text/css">
	.st0{fill:#666666;}
</style>
<path class="st0" d="M16,11V3c0-0.6-0.4-1-1-1H3C2.4,2,2,2.4,2,3v1H1C0.4,4,0,4.4,0,5v8c0,0.6,0.4,1,1,1h12c0.6,0,1-0.4,1-1v-1h1
	C15.6,12,16,11.6,16,11z M2,5v6c0,0.6,0.4,1,1,1h10v1H1V5H2z M15,11H3V3h12V11z"/>
</svg>
